<?xml version="1.0" encoding="UTF-8" standalone="no"?>
<!DOCTYPE svg PUBLIC "-//W3C//DTD SVG 1.1//EN" "http://www.w3.org/Graphics/SVG/1.1/DTD/svg11.dtd">
<svg width="100%" height="100%" viewBox="0 0 800 800" version="1.1" xmlns="http://www.w3.org/2000/svg" xmlns:xlink="http://www.w3.org/1999/xlink" xml:space="preserve" xmlns:serif="http://www.serif.com/" style="fill-rule:evenodd;clip-rule:evenodd;stroke-miterlimit:10;">
    <g transform="matrix(1.18128,0,0,1.18128,-50.8801,-64.9815)">
        <g id="Layer-3-copy-2" serif:id="Layer 3 copy 2" transform="matrix(1.85185,0,0,1.85185,0,0)">
            <g>
                <g transform="matrix(1,0,0,1,365.079,287.85)">
                    <path d="M0,-99.254C1.672,-89.978 2.553,-80.426 2.553,-70.66C2.553,-42.938 -4.491,-16.853 -16.898,5.888L-16.907,5.888L-17.014,5.826C-19.638,-9.249 -35.94,-11.116 -51.166,-12.584C-71.373,-14.541 -91.757,-8.359 -111.928,-10.654C-146.899,-14.638 -176.844,-46.14 -177.102,-81.333L-176.987,-81.431C-174.221,-78.274 -171.321,-75.276 -168.102,-72.697C-160.053,-66.24 -150.136,-62.549 -140.157,-59.899C-124.317,-55.683 -107.384,-53.896 -91.517,-57.631C-91.508,-57.631 -91.499,-57.631 -91.482,-57.64C-62.915,-60.619 -33.174,-77.873 -15.235,-100.01L-15.244,-100.037C-12.949,-100.89 -10.744,-101.922 -8.654,-103.132C-5.167,-105.142 -0.72,-103.212 0,-99.254" style="fill:rgb(254,137,127);fill-rule:nonzero;"/>
                </g>
                <g transform="matrix(1,0,0,1,349.835,230.211)">
                    <path d="M0,-42.397L0.009,-42.37C-17.93,-20.234 -47.671,-2.98 -76.238,0C-74.237,-0.472 -72.253,-1.032 -70.288,-1.681C-52.767,-7.516 -37.381,-21.977 -34.188,-40.174L-33.512,-42.112C-27.909,-40.227 -21.247,-39.702 -15.111,-39.702C-9.792,-39.702 -4.705,-40.654 0,-42.397" style="fill:rgb(240,116,114);fill-rule:nonzero;"/>
                </g>
                <g transform="matrix(1,0,0,1,348.065,223.46)">
                    <path d="M0,70.217L0.107,70.279C-11.633,91.82 -28.193,110.364 -48.115,124.469C-92.593,123.117 -137.142,111.831 -172.709,85.105C-173.963,84.162 -175.217,83.202 -176.444,82.215L-176.097,81.779C-182.972,76.576 -187.819,68.696 -189.304,60.211C-190.452,53.683 -189.731,46.782 -192.079,40.583C-196.188,29.724 -208.533,24.209 -220.086,23.062C-231.63,21.915 -243.334,23.951 -254.869,22.715C-272.444,20.821 -290.605,6.537 -300.601,-8.04C-300.424,-24.119 -297.88,-39.639 -293.3,-54.252C-282.965,-52.197 -272.906,-42.138 -263.105,-38.314C-239.706,-29.189 -213.006,-52.064 -189.322,-43.704C-176.657,-39.239 -169.009,-27.312 -159.973,-17.04L-160.088,-16.942C-159.83,18.251 -129.885,49.752 -94.915,53.737C-74.743,56.031 -54.359,49.85 -34.152,51.807C-18.926,53.274 -2.624,55.142 0,70.217" style="fill:rgb(222,132,124);fill-rule:nonzero;"/>
                </g>
                <g transform="matrix(1,0,0,1,273.562,102.335)">
                    <path d="M0,127.884C-15.867,131.619 -32.8,129.832 -48.64,125.616C-58.619,122.966 -68.536,119.275 -76.584,112.818C-79.804,110.239 -82.703,107.241 -85.469,104.084C-94.505,93.812 -102.154,81.885 -114.819,77.421C-138.503,69.06 -165.202,91.935 -188.602,82.81C-198.403,78.986 -208.462,68.927 -218.796,66.873C-210.178,39.417 -194.365,15.137 -173.562,-3.735L-172.958,-3.059C-163.343,11.535 -147.459,21.212 -130.677,26.077C-113.885,30.942 -96.133,31.404 -78.674,30.648C-62.95,29.972 -44.931,30.435 -31.333,38.368L-31.084,38.315C-29.305,45.439 -24.591,52.224 -19.104,57.712C-8.751,68.064 10.486,75.953 22.35,68.269C25.596,66.17 29.492,67.211 29.776,70.884C30.417,78.995 35.762,83.433 42.761,85.763L42.085,87.702C38.893,105.899 23.506,120.36 5.986,126.194C4.02,126.843 2.037,127.404 0.036,127.875C0.018,127.884 0.009,127.884 0,127.884" style="fill:rgb(254,137,127);fill-rule:nonzero;"/>
                </g>
                <g transform="matrix(1,0,0,1,242.478,62.696)">
                    <path d="M0,77.954L-0.249,78.007C-13.848,70.074 -31.866,69.612 -47.591,70.288C-65.049,71.044 -82.801,70.581 -99.593,65.716C-116.375,60.851 -132.26,51.175 -141.874,36.58L-142.479,35.904C-124.015,19.148 -101.629,6.652 -76.86,-0.053C-86.092,15.03 -85.042,41.303 -71.106,52.144C-61.216,59.837 -47.964,61.26 -35.468,62.105C-24.796,62.835 -6.59,67.024 -1.138,76.229L-0.391,76.104C-0.285,76.727 -0.151,77.34 0,77.954" style="fill:rgb(240,116,114);fill-rule:nonzero;"/>
                </g>
                <g transform="matrix(1,0,0,1,237.96,73.7413)">
                    <path d="M0,48.543C3.344,49.761 5.061,52.634 4.225,56.601C3.629,59.42 3.646,62.257 4.127,65.059L3.38,65.183C-2.072,55.978 -20.278,51.789 -30.95,51.06C-43.446,50.215 -56.698,48.792 -66.588,41.099C-80.524,30.257 -81.574,3.985 -72.342,-11.099L-72.333,-11.099C-58.975,-14.71 -44.923,-16.64 -30.417,-16.64C-19.984,-16.64 -9.792,-15.635 0.08,-13.731C0.213,-13.705 0.258,-13.509 0.133,-13.438C-11.366,-6.972 -16.187,4.883 -16.187,17.602C-16.187,30.257 -11.366,44.407 0,48.543" style="fill:rgb(254,137,127);fill-rule:nonzero;"/>
                </g>
                <g transform="matrix(1,0,0,1,175.357,317.708)">
                    <path d="M0,-9.143C35.566,17.583 80.115,28.869 124.593,30.221C89.4,55.141 43.704,66.205 -4.554,55.479C-64.018,42.263 -110.594,-4.314 -123.811,-63.778C-124.406,-66.464 -124.94,-69.149 -125.403,-71.818L-122.966,-72.244C-110.701,-75.348 -97.814,-71.346 -86.145,-66.481C-65.547,-57.908 -46.15,-46.479 -28.656,-32.632C-20.207,-25.943 -12.202,-18.695 -3.735,-12.033C-2.508,-11.046 -1.254,-10.086 0,-9.143" style="fill:rgb(240,116,114);fill-rule:nonzero;"/>
                </g>
                <g transform="matrix(1,0,0,1,171.968,215.857)">
                    <path d="M0,89.382L-0.347,89.818C-8.814,83.156 -16.818,75.908 -25.267,69.22C-42.761,55.372 -62.159,43.944 -82.757,35.37C-94.425,30.505 -107.313,26.503 -119.577,29.607L-122.014,30.034C-123.802,19.717 -124.611,9.534 -124.504,-0.436C-114.508,14.14 -96.346,28.424 -78.772,30.318C-67.237,31.555 -55.533,29.518 -43.989,30.665C-32.436,31.812 -20.091,37.327 -15.982,48.186C-13.634,54.385 -14.355,61.287 -13.207,67.815C-11.722,76.299 -6.875,84.179 0,89.382" style="fill:rgb(254,137,127);fill-rule:nonzero;"/>
                </g>
            </g>
            <g transform="matrix(1,0,0,1,165.618,378.372)">
                <path d="M0,-315.73C-24.769,-309.024 -47.155,-296.528 -65.618,-279.772C-86.421,-260.9 -102.234,-236.62 -110.852,-209.165C-115.433,-194.552 -117.976,-179.032 -118.154,-162.952C-118.261,-152.982 -117.451,-142.799 -115.664,-132.482C-115.201,-129.814 -114.668,-127.128 -114.072,-124.442C-100.856,-64.978 -54.279,-18.402 5.185,-5.185C53.443,5.541 99.139,-5.523 134.332,-30.444C154.254,-44.549 170.814,-63.093 182.554,-84.634L182.563,-84.634C194.97,-107.375 202.014,-133.461 202.014,-161.182C202.014,-170.948 201.133,-180.5 199.461,-189.776C198.741,-193.734 194.294,-195.664 190.807,-193.654C188.717,-192.444 186.512,-191.413 184.217,-190.559C179.512,-188.816 174.425,-187.864 169.107,-187.864C162.97,-187.864 156.308,-188.389 150.705,-190.274C143.706,-192.604 138.361,-197.042 137.72,-205.153C137.436,-208.827 133.54,-209.867 130.294,-207.768C118.43,-200.084 99.192,-207.973 88.84,-218.325C83.353,-223.813 78.639,-230.599 76.86,-237.723C76.709,-238.336 76.576,-238.95 76.469,-239.572C75.989,-242.374 75.971,-245.211 76.567,-248.03C77.403,-251.997 75.686,-254.87 72.342,-256.088C60.976,-260.224 56.155,-274.374 56.155,-287.03C56.155,-299.748 60.976,-311.603 72.476,-318.069C72.6,-318.14 72.556,-318.336 72.422,-318.363C62.55,-320.266 52.358,-321.271 41.925,-321.271C27.42,-321.271 13.367,-319.341 0.009,-315.73" style="fill:none;fill-rule:nonzero;stroke:rgb(66,66,73);stroke-width:8.47px;"/>
            </g>
            <g transform="matrix(1,0,0,1,52.3911,344.824)">
                <path d="M0,-99.361C12.265,-102.465 25.152,-98.463 36.82,-93.598C57.418,-85.024 76.816,-73.596 94.31,-59.748C102.759,-53.06 110.763,-45.811 119.23,-39.15C120.458,-38.163 121.712,-37.202 122.966,-36.26C158.532,-9.534 203.081,1.753 247.559,3.104L247.648,3.104" style="fill:none;fill-rule:nonzero;stroke:rgb(66,66,73);stroke-width:2.54px;"/>
            </g>
            <g transform="matrix(1,0,0,1,273.597,190.038)">
                <path d="M0,40.173C2.001,39.702 3.984,39.141 5.95,38.492C23.471,32.658 38.857,18.196 42.05,0" style="fill:none;fill-rule:nonzero;stroke:rgb(66,66,73);stroke-width:2.54px;"/>
            </g>
            <g transform="matrix(1,0,0,1,54.57,233.955)">
                <path d="M0,-64.791C0.062,-64.782 0.133,-64.764 0.196,-64.747C10.53,-62.692 20.589,-52.633 30.39,-48.809C53.79,-39.684 80.489,-62.559 104.173,-54.198C116.838,-49.734 124.486,-37.807 133.523,-27.535C136.289,-24.378 139.188,-21.38 142.407,-18.801C150.456,-12.344 160.373,-8.653 170.352,-6.003C186.192,-1.787 203.125,0 218.992,-3.735" style="fill:none;fill-rule:nonzero;stroke:rgb(66,66,73);stroke-width:2.54px;"/>
            </g>
            <g transform="matrix(0.492477,-0.870326,-0.870326,-0.492477,165.746,62.641)">
                <path d="M-0.06,0.103C0.02,0.106 0.099,0.111 0.176,0.103" style="fill:none;fill-rule:nonzero;stroke:rgb(66,66,73);stroke-width:2.54px;"/>
            </g>
            <g transform="matrix(1,0,0,1,165.618,62.6425)">
                <path d="M0,0L0.009,0" style="fill:none;fill-rule:nonzero;stroke:rgb(66,66,73);stroke-width:8.47px;"/>
            </g>
            <g transform="matrix(1,0,0,1,241.34,62.6426)">
                <path d="M0,76.282C-5.452,67.077 -23.658,62.888 -34.33,62.159C-46.826,61.314 -60.078,59.891 -69.967,52.198C-83.904,41.356 -84.954,15.084 -75.722,0" style="fill:none;fill-rule:nonzero;stroke:rgb(66,66,73);stroke-width:2.54px;"/>
            </g>
            <g transform="matrix(1,0,0,1,348.065,206.518)">
                <path d="M0,87.159C-2.624,72.084 -18.926,70.216 -34.152,68.749C-54.359,66.792 -74.743,72.973 -94.915,70.679C-129.885,66.694 -159.83,35.193 -160.088,0" style="fill:none;fill-rule:nonzero;stroke:rgb(66,66,73);stroke-width:2.54px;"/>
            </g>
            <g transform="matrix(0.997256,0,0,1.00476,171.626,215.412)">
                <path d="M0,89.827C-6.875,84.624 -11.722,76.744 -13.207,68.26C-14.355,61.732 -13.634,54.83 -15.982,48.631C-20.091,37.772 -32.436,32.257 -43.989,31.11C-55.533,29.963 -67.237,32 -78.772,30.763C-96.346,28.869 -114.508,14.585 -124.504,0.009C-124.513,0.009 -124.513,0 -124.513,0" style="fill:none;fill-rule:nonzero;stroke:rgb(66,66,73);stroke-width:2.54px;"/>
            </g>
            <g transform="matrix(1,0,0,1,242.229,99.2763)">
                <path d="M0,41.427C-13.599,33.494 -31.617,33.031 -47.342,33.707C-64.8,34.463 -82.552,34.001 -99.344,29.136C-116.126,24.271 -132.011,14.594 -141.625,0" style="fill:none;fill-rule:nonzero;stroke:rgb(66,66,73);stroke-width:2.54px;"/>
            </g>
            <g transform="matrix(0.956711,0,0,0.993941,273.265,187.841)">
                <path d="M0,42.69C1.254,42.619 2.508,42.512 3.762,42.379C3.771,42.379 3.78,42.379 3.798,42.37C32.365,39.39 62.105,22.136 80.044,0" style="fill:none;fill-rule:nonzero;stroke:rgb(66,66,73);stroke-width:2.6px;"/>
            </g>
        </g>
        <g id="SHADOW" transform="matrix(1.85185,0,0,1.85185,0,0)">
            <g opacity="0.53">
                <g transform="matrix(1,0,0,1,66.4728,226.064)">
                    <path d="M0,72.36C-73.378,-44.327 53.956,-141.66 53.956,-141.66C53.956,-141.66 24.372,63.497 229.567,126.059C229.567,126.059 89.082,214.02 0,72.36" style="fill:rgb(130,58,66);fill-rule:nonzero;"/>
                </g>
            </g>
        </g>
        <g id="BITE-SHADOW" serif:id="BITE SHADOW" transform="matrix(1.85185,0,0,1.85185,0,0)">
            <g transform="matrix(1,0,0,1,238.803,191.222)">
                <path d="M0,-130.752C0.875,-131.413 2.091,-130.579 1.807,-129.52C-0.655,-120.335 -7.658,-99.429 7.128,-88.055C13.431,-83.207 16.336,-76.113 17.204,-68.208C18.17,-59.411 24.885,-43.119 34.425,-41.422C52.64,-38.183 54.347,-43.778 63.998,-35.735C70.822,-30.048 67.41,-32.323 76.509,-23.224C85.608,-14.125 89.02,-22.086 95.845,-16.399C100.214,-12.759 120.842,-16.451 123.142,-11.85C127.692,-2.751 129.962,-8.889 126.554,-6.163C120.867,-1.613 102.068,-1.145 102.068,-1.145C102.068,-1.145 105.099,-2.087 95.922,-0.713C86.746,0.661 90.232,-1.85 83.333,-1.613C76.435,-1.376 81.557,-0.599 76.758,-3.381C71.959,-6.163 74.234,-3.888 71.959,-6.163C69.685,-8.438 67.731,-9.636 66.433,-12.449C65.135,-15.262 63.998,-17.537 63.998,-17.537C63.998,-17.537 57.041,-20.279 57.107,-20.614C57.173,-20.949 60.305,-19.811 53.052,-18.674C45.799,-17.537 44.774,-19.011 41.306,-18.843C37.838,-18.674 39.639,-18.681 33.62,-20.384C27.601,-22.086 29.159,-18.646 25.326,-24.361C21.494,-30.077 19.639,-23.224 18.502,-27.773C17.364,-32.323 11.678,-30.048 12.815,-34.598C13.952,-39.147 8.265,-32.323 8.265,-39.147C8.265,-45.972 4.853,-39.147 4.853,-44.834C4.853,-50.521 2,-50.818 3.427,-55.788C4.853,-60.758 2,-62.217 3.427,-64.331C4.853,-66.445 8.265,-65.307 4.853,-66.445C1.441,-67.582 -2.785,-69.194 -5.221,-71.231C-7.658,-73.269 -5.383,-68.72 -7.658,-73.269C-9.933,-77.819 -10.884,-76.89 -13.252,-81.336C-15.62,-85.781 -16.671,-88.476 -16.145,-90.54C-15.62,-92.605 -14.716,-89.399 -16.874,-96.12C-19.032,-102.841 -18.463,-111.075 -16.757,-113.078C-15.492,-114.563 -6.561,-125.799 0,-130.752" style="fill:rgb(158,80,88);fill-rule:nonzero;"/>
            </g>
            <g transform="matrix(1,0,0,1,238.803,191.222)">
                <path d="M0,-130.752C0.875,-131.413 2.091,-130.579 1.807,-129.52C-0.655,-120.335 -7.658,-99.429 7.128,-88.055C13.431,-83.207 16.336,-76.113 17.204,-68.208C18.17,-59.411 24.885,-43.119 34.425,-41.422C52.64,-38.183 54.347,-43.778 63.998,-35.735C70.822,-30.048 67.41,-32.323 76.509,-23.224C85.608,-14.125 89.02,-22.086 95.845,-16.399C100.214,-12.759 120.842,-16.451 123.142,-11.85C127.692,-2.751 129.962,-8.889 126.554,-6.163C120.867,-1.613 102.068,-1.145 102.068,-1.145C102.068,-1.145 105.099,-2.087 95.922,-0.713C86.746,0.661 90.232,-1.85 83.333,-1.613C76.435,-1.376 81.557,-0.599 76.758,-3.381C71.959,-6.163 74.234,-3.888 71.959,-6.163C69.685,-8.438 67.731,-9.636 66.433,-12.449C65.135,-15.262 63.998,-17.537 63.998,-17.537C63.998,-17.537 57.041,-20.279 57.107,-20.614C57.173,-20.949 60.305,-19.811 53.052,-18.674C45.799,-17.537 44.774,-19.011 41.306,-18.843C37.838,-18.674 39.639,-18.681 33.62,-20.384C27.601,-22.086 29.159,-18.646 25.326,-24.361C21.494,-30.077 19.639,-23.224 18.502,-27.773C17.364,-32.323 11.678,-30.048 12.815,-34.598C13.952,-39.147 8.265,-32.323 8.265,-39.147C8.265,-45.972 4.853,-39.147 4.853,-44.834C4.853,-50.521 2,-50.818 3.427,-55.788C4.853,-60.758 2,-62.217 3.427,-64.331C4.853,-66.445 8.265,-65.307 4.853,-66.445C1.441,-67.582 -2.785,-69.194 -5.221,-71.231C-7.658,-73.269 -5.383,-68.72 -7.658,-73.269C-9.933,-77.819 -10.884,-76.89 -13.252,-81.336C-15.62,-85.781 -16.671,-88.476 -16.145,-90.54C-15.62,-92.605 -14.716,-89.399 -16.874,-96.12C-19.032,-102.841 -18.463,-111.075 -16.757,-113.078C-15.492,-114.563 -6.561,-125.799 0,-130.752Z" style="fill:none;fill-rule:nonzero;stroke:rgb(71,71,71);stroke-width:5.08px;"/>
            </g>
        </g>
        <g id="DINGLES" transform="matrix(1.85185,0,0,1.85185,0,0)">
            <g transform="matrix(1,0,0,1,245.436,47.446)">
                <path d="M0,101.71C0.45,101.314 0.641,100.902 0.638,100.282C0.608,94.168 0.599,88.054 0.596,81.941C0.634,71.251 0.568,60.553 0.546,49.859C0.564,46.129 -0.016,47.206 2.662,44.824C11.897,36.609 21.147,28.413 30.392,20.209C35.873,15.345 41.349,10.473 46.847,5.627C47.336,5.196 47.497,4.833 47.298,4.129C46.655,1.848 47.791,-0.365 49.919,-1.177C54.884,-2.88 58.897,3.934 54.545,7.276C51.749,9.412 49.99,6.338 48.605,7.781C33.708,21.011 18.823,34.255 3.895,47.449C3.389,47.894 3.218,48.366 3.221,49.045C3.262,65.824 3.287,82.602 3.354,99.383C3.259,103.332 3.834,102.046 1.031,104.59" style="fill:rgb(61,61,61);fill-rule:nonzero;"/>
            </g>
            <g transform="matrix(1,0,0,1,360.368,159.138)">
                <path d="M0,-16.551C1.842,-18.146 -0.828,-21.248 -2.66,-19.584C-4.58,-17.927 -1.902,-14.881 0,-16.551M-67.488,6.934C-66.844,6.347 -65.861,6.196 -64.962,6.017C-59.274,4.879 -53.587,4.879 -48.434,3.673C-48.392,3.663 -48.349,3.666 -48.314,3.642C-38.026,-3.24 -29.221,-12.992 -19.554,-21.178C-18.307,-19.76 -18.873,-20.404 -17.626,-18.985C-23.245,-13.771 -29.131,-8.862 -34.823,-3.693C-34.945,-3.582 -34.876,-3.374 -34.711,-3.355C-30.567,-2.884 -26.583,-2.591 -22.447,-2.152C-21.72,-2.079 -21.174,-2.216 -20.625,-2.709C-15.791,-7.045 -10.928,-11.347 -6.062,-15.646C-5.678,-15.986 -5.528,-16.252 -5.743,-16.84C-7.455,-21.509 -1.513,-24.842 1.839,-21.263C3.472,-19.541 3.794,-17.215 2.652,-15.38C-0.357,-11.325 -2.908,-14.862 -4.313,-13.467C-9.325,-8.981 -14.366,-4.528 -19.38,-0.044C-20.804,1.716 -33.681,-0.943 -37.071,-0.83C-39.197,-0.762 -43.564,4.438 -45.621,5.906C-46.125,6.36 -46.641,6.389 -47.364,6.484C-52.45,7.154 -59.274,8.291 -64.961,8.291C-65.425,8.291 -64.373,5.18 -64.716,5.482" style="fill:rgb(61,61,61);fill-rule:nonzero;"/>
            </g>
            <g transform="matrix(1,0,0,1,320.691,151.985)">
                <path d="M0,-34.994C1.875,-36.693 -0.746,-39.715 -2.692,-38.061C-4.522,-36.406 -1.875,-33.406 0,-34.994M-72.262,6.99C-73.076,6.395 -73.362,5.529 -73.493,4.625C-74.032,0.892 -70.75,-1.617 -67.261,-0.118C-66.686,0.129 -66.365,0.049 -65.95,-0.32C-55.831,-9.32 -45.703,-18.309 -35.563,-27.284C-35.118,-27.678 -34.989,-28.029 -35.177,-28.653C-35.839,-30.855 -34.991,-32.955 -33.116,-33.938C-29.08,-36.127 -24.214,-30.846 -26.729,-27.033C-27.927,-25.188 -30.075,-24.524 -32.228,-25.408C-32.877,-25.674 -33.286,-25.62 -33.788,-25.167C-37.362,-21.943 -40.92,-18.818 -44.526,-15.615C-39.606,-14.845 -34.667,-14.651 -29.728,-14.134C-21.781,-19.672 -14.903,-27.217 -7.342,-33.442C-3.945,-35.438 -8.198,-38.92 -3.197,-40.986C0.814,-42.571 5.068,-37.493 2.654,-33.85C1.456,-31.944 -1.008,-31.235 -3.093,-32.347C-3.842,-32.747 -4.19,-32.558 -4.685,-32.118C-12.234,-25.399 -19.802,-18.702 -27.345,-11.976C-27.956,-11.431 -28.579,-11.239 -29.414,-11.323C-35.156,-11.896 -40.9,-12.447 -46.645,-12.96C-47.089,-12.999 -47.646,-12.809 -47.971,-12.523C-53.349,-7.795 -58.691,-3.026 -64.067,1.703C-64.558,2.135 -64.629,2.514 -64.441,3.144C-63.96,4.808 -64.258,6.847 -65.89,7.577C-68.014,7.382 -70.138,7.186 -72.262,6.99" style="fill:rgb(61,61,61);fill-rule:nonzero;"/>
            </g>
            <g transform="matrix(1,0,0,1,344.295,112.987)">
                <path d="M0,25.985C-1.072,24.831 -0.644,25.291 -1.716,24.137C3.362,18.843 9.233,14.275 14.65,9.301C15.215,8.804 15.363,8.397 15.099,7.582C13.612,2.957 19.859,0 22.968,3.653C26.269,7.231 22.593,13.056 18.118,11.028C17.448,10.718 17.101,10.897 16.661,11.289C11.066,16.133 5.702,21.276 0,25.985" style="fill:rgb(61,61,61);fill-rule:nonzero;"/>
            </g>
            <g transform="matrix(1,0,0,1,340.814,129.02)">
                <path d="M0,8.939L20.562,-8.225L20.142,-4.744L-4.543,17.006C-4.722,17.164 -4.981,16.944 -4.855,16.742L0,8.939Z" style="fill:rgb(61,61,61);fill-rule:nonzero;"/>
            </g>
            <g transform="matrix(-0.748152,0.663528,0.663528,0.748152,335.343,161.159)">
                <path d="M-43.635,-10.599L5.973,-10.599L8.843,-13.474L-48.618,-13.871L-43.635,-10.599Z" style="fill:rgb(61,61,61);fill-rule:nonzero;"/>
            </g>
        </g>
        <g transform="matrix(1.85185,0,0,1.85185,619.86,487.021)">
            <g id="COVER-OUTLINE" serif:id="COVER OUTLINE">
                <path d="M0,-72.483C-13.786,-72.483 -27.522,-76.083 -31.924,-89.307C-33.678,-94.574 -35.968,-95.068 -41.024,-92.719C-53.075,-87.119 -69.915,-92.593 -80.267,-102.944C-88.372,-111.05 -94.781,-121.963 -92.54,-132.65C-91.707,-136.62 -93.423,-139.49 -96.763,-140.706C-108.132,-144.847 -112.951,-158.993 -112.951,-171.649C-112.951,-183.985 -106.907,-194.968 -97.5,-202.051C-97.039,-202.398 -97.192,-203.127 -97.76,-203.229C-107.006,-204.873 -117.543,-205.89 -127.181,-205.89C-227.578,-205.89 -306.39,-113.471 -283.183,-9.067C-269.965,50.401 -223.384,96.982 -163.915,110.2C-59.511,133.407 32.907,54.596 32.907,-45.802C32.907,-56.722 31.601,-67.464 30.632,-77.933C30.392,-80.524 26.158,-82.912 23.808,-81.345C16.833,-76.695 9.014,-72.483 0,-72.483Z" style="fill:none;fill-rule:nonzero;stroke:rgb(71,71,71);stroke-width:8.47px;"/>
            </g>
        </g>
    </g>
</svg>
